<svg id="Layer_1" data-name="Layer 1" xmlns="http://www.w3.org/2000/svg" viewBox="0 0 770.02 769"><defs><style>.cls-1{fill:#fff;}</style></defs><title>favicon</title><circle class="cls-1" cx="385.79" cy="384.5" r="384.23"/><path d="M162,296.67A722.87,722.87,0,0,1,254.1,278.1l-9.17,1.23A697.09,697.09,0,0,1,428.42,279l-9.17-1.23A627.79,627.79,0,0,1,578.62,321l-8.24-3.48q22.65,9.63,44.47,21.05c16,8.37,38.23,4.61,47.2-12.38,8.4-15.9,4.69-38.26-12.38-47.2a640.52,640.52,0,0,0-194.33-65C389.25,203.17,322.21,201.1,255.68,209a780,780,0,0,0-112,21.16c-17.42,4.71-29.82,24.76-24.1,42.44,5.79,17.85,23.79,29.14,42.45,24.09Z"/><path d="M185.45,415.43A430.35,430.35,0,0,1,262,398L254,399c44.52-5.88,89.63-5.22,134.11.69l-8-1.07a597,597,0,0,1,150.38,41.17l-7.17-3q23.33,9.85,45.74,21.67c13.87,7.32,33.26,4,41.05-10.76,7.33-13.86,4-33.22-10.76-41.05a622.36,622.36,0,0,0-156.69-57.62C386,336.62,327.05,331.49,269.2,337.27c-33.87,3.38-67.35,9.68-99.71,20.31-14.88,4.89-26.11,21-21,36.9,4.81,14.85,20.94,26.2,36.91,20.95Z"/><path d="M190.81,524.82c13.55-3.18,27.16-6.08,40.85-8.59q8.61-1.58,17.25-2.94,4.68-.74,9.36-1.41c1.41-.2,2.82-.43,4.23-.59-6.45.73,1.2-.14,2.42-.29a531.73,531.73,0,0,1,71.23-4.16q17,.21,34,1.7,4.56.4,9.11.92c1.42.16,6.73,0,7.54.91l-3-.4,3,.43c1,.15,2,.29,3,.45,3.23.5,6.46,1,9.68,1.61a390.73,390.73,0,0,1,64.73,17.4c5.73,2.08,11.32,4.68,17.08,6.65-5.82-2-.91-.38.29.14l5,2.18q4.6,2.07,9.17,4.25c12,5.72,23.64,12,35.06,18.74,10.15,6,25.12,2.65,30.78-8.07s2.76-24.4-8.07-30.78c-41.64-24.52-87.16-43.09-134.63-52.51-48.25-9.58-97.62-10.72-146.44-5.33a789.09,789.09,0,0,0-93.59,16.3c-11.47,2.69-19.36,16.42-15.71,27.68,3.89,12,15.41,18.59,27.7,15.71Z"/></svg>