<svg id="Layer_1" data-name="Layer 1" xmlns="http://www.w3.org/2000/svg" viewBox="0 0 517.08 666.26"><defs><style>.cls-1{fill:#bcbcbc;stroke:#fff;}.cls-1,.cls-2,.cls-3{stroke-miterlimit:10;}.cls-1,.cls-2{stroke-width:3px;}.cls-2,.cls-5{fill:#fff;}.cls-2{stroke:#9b9b9b;}.cls-3{fill:none;stroke:#ccc;stroke-linecap:round;stroke-width:5px;}.cls-4{fill:#c2ffd8;}.cls-6{fill:#878787;}.cls-7{fill:#f7c1c1;}.cls-8{fill:#eeffe1;}</style></defs><title>login_img</title><path class="cls-1" d="M437.91,651.36,227.44,615c-10.07-1.74-18.24-11.32-18.24-21.39v-371c0-10.07,8.17-16.83,18.24-15.08l210.47,36.39c10.07,1.75,18.24,11.32,18.24,21.4v371C456.15,646.35,448,653.1,437.91,651.36Z"/><path class="cls-2" d="M332.08,581.35l-271.91-47c-13-2.25-23.56-14.62-23.56-27.64V27.38c0-13,10.55-21.74,23.56-19.49l271.91,47c13,2.25,23.56,14.62,23.56,27.64V561.87C355.64,574.88,345.09,583.6,332.08,581.35Z"/><line class="cls-3" x1="74.54" y1="130.26" x2="221.67" y2="155.54"/><line class="cls-3" x1="74.54" y1="155.82" x2="221.67" y2="181.11"/><line class="cls-3" x1="74.54" y1="181.78" x2="221.67" y2="207.06"/><line class="cls-3" x1="74.54" y1="207.34" x2="221.67" y2="232.63"/><polygon class="cls-4" points="291.79 144.83 72.45 108.17 72.45 40.86 291.79 77.52 291.79 144.83"/><path class="cls-5" d="M339.61,28c10.19.76,18.35,8.81,23.87,17.41,9.66,15,14.08,34.58,7.11,51"/><path class="cls-6" d="M339.61,29.49c14.17,1.58,23.52,15.79,28.44,27.93,5,12.39,6.12,26.07,1.09,38.62-.72,1.79,2.18,2.57,2.89.8,5.7-14.23,3.74-29.9-2.54-43.59-5.69-12.39-15.42-25.15-29.88-26.76-1.91-.21-1.9,2.79,0,3Z"/><path class="cls-5" d="M3.4,486a64.21,64.21,0,0,0,38.26,80.91"/><path class="cls-6" d="M2,485.58a66.61,66.61,0,0,0,39.31,82.76c1.8.7,2.58-2.2.8-2.89A63.57,63.57,0,0,1,4.84,486.38c.6-1.84-2.29-2.63-2.89-.8Z"/><path class="cls-6" d="M500.08,263.81v325a1.5,1.5,0,0,0,3,0v-325a1.5,1.5,0,0,0-3,0Z"/><circle class="cls-7" cx="445.53" cy="122.88" r="71.54"/><circle class="cls-8" cx="156.38" cy="566.89" r="99.37"/></svg>