<?xml version="1.0" encoding="utf-8"?>
<!-- Generator: Adobe Illustrator 23.0.0, SVG Export Plug-In . SVG Version: 6.00 Build 0)  -->
<svg version="1.1" id="Layer_1" xmlns="http://www.w3.org/2000/svg" xmlns:xlink="http://www.w3.org/1999/xlink" x="0px" y="0px"
	 viewBox="0 0 4060.56 769" style="enable-background:new 0 0 4060.56 769;" xml:space="preserve">
<style type="text/css">
	.st0{fill:#FFFFFF;}
</style>
<g>
	<path class="st0" d="M1130.36,514.49c-6.21,13.31-14.86,24.49-25.96,33.52c-11.11,9.04-24.36,15.95-39.75,20.71
		c-15.4,4.76-32.46,7.15-51.2,7.15c-26.3,0-52.1-4.52-77.4-13.56c-25.31-9.04-48.31-22.92-69.02-41.66l44.86-53.74
		c15.78,12.82,31.96,23.01,48.56,30.57c16.59,7.56,34.76,11.34,54.48,11.34c15.78,0,28.02-2.87,36.73-8.63
		c8.71-5.75,13.06-13.72,13.06-23.91v-0.99c0-4.93-0.91-9.28-2.72-13.06c-1.82-3.78-5.28-7.31-10.38-10.6
		c-5.11-3.28-12.19-6.57-21.25-9.86c-9.07-3.28-20.84-6.73-35.34-10.35c-17.47-4.27-33.29-9.04-47.46-14.3
		c-14.17-5.25-26.2-11.75-36.08-19.47c-9.89-7.72-17.55-17.33-22.99-28.84c-5.44-11.5-8.16-25.8-8.16-42.89v-0.99
		c0-15.78,2.93-29.99,8.81-42.64c5.88-12.65,14.12-23.58,24.73-32.79c10.62-9.2,23.29-16.27,38.02-21.2
		c14.73-4.93,30.97-7.4,48.72-7.4c25.3,0,48.56,3.78,69.76,11.34c21.2,7.56,40.67,18.41,58.42,32.54l-39.44,57.19
		c-15.45-10.52-30.57-18.81-45.36-24.9c-14.79-6.08-29.58-9.12-44.37-9.12s-25.88,2.88-33.28,8.63
		c-7.39,5.75-11.09,12.9-11.09,21.45v0.99c0,5.59,1.07,10.44,3.21,14.54c2.14,4.11,6.01,7.81,11.62,11.09
		c5.6,3.29,13.26,6.41,22.99,9.37c9.72,2.96,21.99,6.41,36.83,10.35c17.46,4.61,33.03,9.78,46.71,15.53
		c13.67,5.75,25.21,12.66,34.6,20.71c9.39,8.06,16.48,17.5,21.25,28.35c4.78,10.85,7.17,23.83,7.17,38.95v0.99
		C1139.66,485.98,1136.56,501.18,1130.36,514.49z"/>
	<path class="st0" d="M1429.3,497.72c-6.74,16.93-15.61,31.23-26.62,42.89c-11.02,11.67-23.75,20.46-38.21,26.38
		c-14.47,5.92-29.58,8.87-45.36,8.87c-20.05,0-36.57-3.91-49.55-11.74c-12.99-7.83-23.91-16.95-32.78-27.39v113.08h-74.94V306.69
		h74.94v37.63c9.2-12.39,20.29-22.58,33.28-30.57c12.98-7.99,29.33-11.99,49.05-11.99c15.44,0,30.4,2.96,44.86,8.87
		c14.46,5.92,27.28,14.71,38.45,26.38c11.17,11.67,20.13,25.97,26.87,42.89c6.73,16.93,10.11,36.4,10.11,58.42v0.99
		C1439.41,461.33,1436.03,480.8,1429.3,497.72z M1364.47,438.32c0-10.92-1.73-20.93-5.18-30.03c-3.45-9.1-8.13-16.87-14.05-23.33
		s-12.74-11.42-20.46-14.89c-7.73-3.47-16.02-5.21-24.9-5.21s-17.18,1.74-24.9,5.21c-7.73,3.47-14.47,8.44-20.21,14.89
		c-5.75,6.46-10.35,14.23-13.8,23.33c-3.45,9.1-5.18,19.1-5.18,30.03v0.99c0,10.92,1.73,20.94,5.18,30.03s8.05,16.87,13.8,23.33
		c5.75,6.46,12.49,11.42,20.21,14.89c7.72,3.47,16.02,5.21,24.9,5.21s17.17-1.73,24.9-5.21c7.72-3.47,14.54-8.44,20.46-14.89
		s10.6-14.14,14.05-23.08s5.18-19.03,5.18-30.28V438.32z"/>
	<path class="st0" d="M1720.91,492.79c-7.23,16.6-17.25,31.14-30.07,43.63c-12.82,12.49-27.94,22.35-45.36,29.58
		c-17.42,7.23-36.48,10.85-57.19,10.85c-20.38,0-39.28-3.54-56.69-10.6c-17.42-7.06-32.46-16.76-45.11-29.09
		c-12.66-12.33-22.6-26.78-29.83-43.38c-7.23-16.59-10.85-34.43-10.85-53.49v-0.99c0-19.06,3.61-36.89,10.85-53.49
		c7.23-16.59,17.25-31.14,30.07-43.63c12.82-12.49,27.93-22.35,45.36-29.58c17.42-7.23,36.48-10.85,57.19-10.85
		c20.38,0,39.27,3.54,56.7,10.6c17.42,7.07,32.45,16.76,45.11,29.09c12.65,12.33,22.59,26.79,29.83,43.38
		c7.23,16.6,10.85,34.43,10.85,53.49v0.99C1731.75,458.37,1728.13,476.2,1720.91,492.79z M1657.8,439.3
		c0-9.86-1.65-19.14-4.93-27.85c-3.29-8.71-8.06-16.43-14.3-23.17c-6.25-6.73-13.64-12.08-22.18-16.02
		c-8.55-3.94-17.92-5.92-28.1-5.92c-10.85,0-20.46,1.89-28.84,5.67c-8.38,3.78-15.53,8.96-21.45,15.53
		c-5.92,6.58-10.44,14.22-13.56,22.92c-3.13,8.71-4.68,18-4.68,27.85v0.99c0,9.86,1.64,19.15,4.93,27.85
		c3.28,8.71,8.05,16.44,14.3,23.17c6.24,6.74,13.56,12.08,21.94,16.02s17.83,5.92,28.35,5.92c10.85,0,20.46-1.89,28.84-5.67
		c8.38-3.77,15.53-8.95,21.45-15.53c5.92-6.57,10.43-14.21,13.56-22.92c3.12-8.71,4.68-18,4.68-27.85V439.3z"/>
	<path class="st0" d="M1872.25,571.18c-9.54,2.79-20.54,4.19-33.03,4.19c-11.51,0-21.94-1.23-31.31-3.7
		c-9.37-2.46-17.42-6.82-24.16-13.06c-6.74-6.24-12-14.37-15.78-24.4c-3.78-10.02-5.67-22.75-5.67-38.21V370.78h-31.55v-64.09h31.55
		v-67.54h74.94v67.54h62.12v64.09h-62.12v112.9c0,17.09,8.05,25.64,24.16,25.64c13.14,0,25.47-3.12,36.97-9.37v60.15
		C1890.49,564.7,1881.78,568.39,1872.25,571.18z"/>
	<path class="st0" d="M1920.07,277.6v-66.56h78.88v66.56H1920.07z M1922.04,570.94V306.69h74.94v264.25H1922.04z"/>
	<path class="st0" d="M2163.11,272.42c-5.26-1.15-11.18-1.73-17.75-1.73c-18.08,0-27.12,9.54-27.12,28.59v10.35h60.64v61.13h-59.65
		v200.16h-74.94V370.78h-31.06v-61.63h31.06v-16.76c0-29.25,6.98-50.69,20.95-64.34c13.97-13.63,34.26-20.46,60.88-20.46
		c11.83,0,21.94,0.66,30.32,1.97c8.38,1.32,16.02,3.13,22.92,5.42v62.12C2173.79,275.14,2168.36,273.58,2163.11,272.42z"/>
	<path class="st0" d="M2333.68,577.34c-4.93,13.47-10.19,24.9-15.78,34.26c-5.59,9.37-11.75,17.01-18.49,22.92
		c-6.74,5.92-14.38,10.18-22.92,12.82c-8.55,2.63-18.41,3.94-29.58,3.94c-13.8,0-25.97-1.65-36.48-4.93
		c-10.52-3.29-20.54-7.73-30.07-13.31l25.14-54.23c4.93,2.96,10.27,5.42,16.02,7.4c5.75,1.97,11.09,2.96,16.02,2.96
		c6.57,0,11.75-1.23,15.53-3.7c3.78-2.47,7.31-6.99,10.6-13.56l-103.53-265.23h79.37l60.15,179.95l57.68-179.95h77.89
		L2333.68,577.34z"/>
	<path class="st0" d="M2825.68,398.88c-7.23,15.12-17.18,27.78-29.83,37.96c-12.66,10.19-27.45,17.83-44.37,22.92
		c-16.93,5.1-35.09,7.64-54.48,7.64h-57.68v103.53h-75.92v-345.1h141c20.71,0,39.19,2.88,55.46,8.63
		c16.27,5.75,30.07,13.89,41.41,24.4c11.34,10.52,20.04,23.09,26.13,37.71c6.08,14.63,9.12,30.81,9.12,48.56v0.99
		C2836.53,366.18,2832.91,383.76,2825.68,398.88z M2759.62,346.62c0-17.08-5.51-30.07-16.52-38.95
		c-11.02-8.87-26.05-13.31-45.11-13.31h-58.67v105.5h60.15c19.06,0,33.85-5.01,44.37-15.04c10.52-10.02,15.78-22.43,15.78-37.22
		V346.62z"/>
	<path class="st0" d="M2852.31,570.94V211.04h74.94v359.89H2852.31z"/>
	<path class="st0" d="M3116.55,570.94v-28.59c-9.21,10.19-20.21,18.33-33.03,24.4s-28.43,9.12-46.83,9.12
		c-12.49,0-24.24-1.73-35.25-5.18c-11.02-3.45-20.63-8.63-28.84-15.53c-8.22-6.9-14.71-15.36-19.47-25.39
		c-4.77-10.02-7.15-21.61-7.15-34.76v-0.99c0-14.46,2.63-26.95,7.89-37.47c5.25-10.51,12.57-19.23,21.94-26.13
		s20.54-12.08,33.52-15.53c12.98-3.45,27.36-5.18,43.14-5.18c13.47,0,25.22,0.99,35.25,2.96c10.02,1.97,19.8,4.61,29.33,7.89v-4.44
		c0-15.78-4.77-27.77-14.3-35.99c-9.54-8.21-23.66-12.33-42.4-12.33c-14.47,0-27.2,1.23-38.21,3.7c-11.01,2.47-22.6,6-34.76,10.6
		l-18.73-57.19c14.46-6.24,29.58-11.34,45.36-15.28c15.78-3.94,34.83-5.92,57.19-5.92c41.08,0,70.99,10.03,89.73,30.07
		c18.73,20.05,28.1,47.99,28.1,83.81v153.32H3116.55z M3118.03,464.45c-6.58-2.96-13.89-5.34-21.94-7.15
		c-8.06-1.8-16.68-2.71-25.88-2.71c-16.11,0-28.76,3.13-37.96,9.37c-9.21,6.25-13.8,15.28-13.8,27.12v0.99
		c0,10.19,3.77,18.08,11.34,23.66c7.56,5.59,17.42,8.38,29.58,8.38c17.75,0,31.96-4.27,42.64-12.82
		c10.68-8.54,16.02-19.72,16.02-33.52V464.45z"/>
	<path class="st0" d="M3367.48,577.34c-4.93,13.47-10.19,24.9-15.78,34.26c-5.59,9.37-11.75,17.01-18.49,22.92
		c-6.74,5.92-14.38,10.18-22.92,12.82c-8.55,2.63-18.41,3.94-29.58,3.94c-13.8,0-25.97-1.65-36.48-4.93
		c-10.52-3.29-20.54-7.73-30.07-13.31l25.14-54.23c4.93,2.96,10.27,5.42,16.02,7.4c5.75,1.97,11.09,2.96,16.02,2.96
		c6.57,0,11.75-1.23,15.53-3.7c3.78-2.47,7.31-6.99,10.6-13.56l-103.53-265.23h79.37l60.15,179.95l57.68-179.95h77.89
		L3367.48,577.34z"/>
	<path class="st0" d="M3480.87,570.94V211.04h74.94v359.89H3480.87z"/>
	<path class="st0" d="M3591.79,277.6v-66.56h78.88v66.56H3591.79z M3593.76,570.94V306.69h74.94v264.25H3593.76z"/>
	<path class="st0" d="M3889.31,528.78c-5.1,10.68-12.25,19.47-21.45,26.38c-9.21,6.9-19.97,12.08-32.29,15.53
		c-12.33,3.45-25.56,5.18-39.69,5.18c-18.73,0-37.88-3.2-57.43-9.61c-19.56-6.41-38.21-16.52-55.96-30.32l32.04-49.3
		c14.46,10.52,28.84,18.41,43.14,23.66c14.3,5.26,27.68,7.89,40.18,7.89c10.85,0,18.81-1.8,23.91-5.42
		c5.09-3.61,7.64-8.38,7.64-14.3v-0.99c0-3.94-1.48-7.39-4.44-10.35s-6.99-5.5-12.08-7.64c-5.1-2.13-10.93-4.19-17.5-6.16
		c-6.58-1.97-13.48-4.11-20.71-6.41c-9.21-2.63-18.49-5.83-27.85-9.61c-9.37-3.77-17.83-8.7-25.39-14.79
		c-7.56-6.08-13.73-13.56-18.49-22.43c-4.77-8.87-7.15-19.72-7.15-32.54v-0.99c0-13.47,2.54-25.39,7.64-35.74
		c5.09-10.35,11.99-19.14,20.71-26.38c8.7-7.23,18.9-12.65,30.57-16.27c11.66-3.61,24.23-5.42,37.71-5.42
		c16.76,0,33.77,2.71,51.03,8.13s33.11,12.9,47.58,22.43l-28.59,51.76c-13.15-7.56-25.97-13.56-38.45-17.99
		c-12.49-4.44-23.5-6.66-33.03-6.66c-9.21,0-16.11,1.73-20.71,5.18c-4.61,3.45-6.9,7.81-6.9,13.07v0.99c0,3.62,1.48,6.83,4.44,9.61
		c2.96,2.8,6.9,5.42,11.83,7.89c4.93,2.46,10.6,4.85,17.01,7.15c6.41,2.3,13.23,4.61,20.46,6.9c9.2,2.96,18.56,6.49,28.1,10.6
		c9.53,4.11,18.07,9.12,25.64,15.04c7.56,5.92,13.8,13.15,18.73,21.69c4.93,8.55,7.4,18.9,7.4,31.06v0.99
		C3896.95,505.37,3894.4,518.11,3889.31,528.78z"/>
	<path class="st0" d="M4036.96,571.18c-9.54,2.79-20.54,4.19-33.03,4.19c-11.51,0-21.94-1.23-31.31-3.7
		c-9.37-2.46-17.42-6.82-24.16-13.06c-6.74-6.24-12-14.37-15.78-24.4c-3.78-10.02-5.67-22.75-5.67-38.21V370.78h-31.55v-64.09h31.55
		v-67.54h74.94v67.54h62.12v64.09h-62.12v112.9c0,17.09,8.05,25.64,24.16,25.64c13.14,0,25.47-3.12,36.97-9.37v60.15
		C4055.2,564.7,4046.49,568.39,4036.96,571.18z"/>
</g>
<circle class="st0" cx="385.79" cy="384.5" r="384.23"/>
<g>
	<g>
		<path d="M162.04,296.67c30.25-8.18,61-14.38,92.06-18.57c-3.06,0.41-6.11,0.82-9.17,1.23c60.85-8.07,122.62-8.39,183.49-0.29
			c-3.06-0.41-6.11-0.82-9.17-1.23c54.75,7.43,108.43,21.7,159.37,43.16c-2.75-1.16-5.49-2.32-8.24-3.48
			c15.1,6.42,29.93,13.43,44.47,21.05c15.97,8.37,38.23,4.61,47.2-12.38c8.4-15.9,4.69-38.26-12.38-47.2
			c-60.79-31.87-126.59-54.05-194.33-65.05c-66.09-10.74-133.13-12.81-199.66-4.93c-37.81,4.48-75.22,11.22-111.99,21.16
			c-17.42,4.71-29.82,24.76-24.1,42.44C125.38,290.43,143.38,301.72,162.04,296.67L162.04,296.67z"/>
	</g>
</g>
<g>
	<g>
		<path d="M185.45,415.43c24.92-8.19,50.52-13.93,76.5-17.46c-2.66,0.36-5.32,0.71-7.98,1.07c44.52-5.88,89.63-5.22,134.11,0.69
			c-2.66-0.36-5.32-0.71-7.98-1.07c51.68,7.02,102.29,21,150.38,41.17c-2.39-1.01-4.78-2.02-7.17-3.02
			c15.55,6.57,30.81,13.78,45.74,21.67c13.87,7.32,33.26,3.98,41.05-10.76c7.33-13.86,4.05-33.22-10.76-41.05
			c-49.27-26.02-102.26-45.68-156.69-57.62c-56.68-12.43-115.6-17.56-173.45-11.78c-33.87,3.38-67.35,9.68-99.71,20.31
			c-14.88,4.89-26.11,20.96-20.95,36.9C153.35,409.33,169.48,420.68,185.45,415.43L185.45,415.43z"/>
	</g>
</g>
<g>
	<g>
		<path d="M190.81,524.82c13.55-3.18,27.16-6.08,40.85-8.59c5.74-1.05,11.49-2.03,17.25-2.94c3.12-0.49,6.24-0.96,9.36-1.41
			c1.41-0.2,2.82-0.43,4.23-0.59c-6.45,0.73,1.2-0.14,2.42-0.29c23.62-2.9,47.43-4.45,71.23-4.16c11.35,0.14,22.69,0.69,34,1.7
			c3.04,0.27,6.08,0.58,9.11,0.92c1.42,0.16,6.73-0.05,7.54,0.91c-0.99-0.13-1.98-0.27-2.98-0.4c1,0.14,2,0.28,3,0.43
			c1,0.15,2,0.29,2.99,0.45c3.23,0.5,6.46,1.03,9.68,1.61c22.02,3.93,43.7,9.76,64.73,17.4c5.73,2.08,11.32,4.68,17.08,6.65
			c-5.82-1.99-0.91-0.38,0.29,0.14c1.65,0.72,3.3,1.45,4.95,2.18c3.07,1.38,6.13,2.8,9.17,4.25c11.96,5.72,23.64,12.01,35.06,18.74
			c10.15,5.98,25.12,2.65,30.78-8.07c5.71-10.81,2.76-24.4-8.07-30.78c-41.64-24.52-87.16-43.09-134.63-52.51
			c-48.25-9.58-97.62-10.72-146.44-5.33c-31.51,3.48-62.73,9.06-93.59,16.3c-11.47,2.69-19.36,16.42-15.71,27.68
			C167,521.07,178.52,527.7,190.81,524.82L190.81,524.82z"/>
	</g>
</g>
</svg>
